<?xml version="1.0" standalone="no"?>
<!DOCTYPE svg PUBLIC "-//W3C//DTD SVG 20010904//EN"
 "http://www.w3.org/TR/2001/REC-SVG-20010904/DTD/svg10.dtd">
<svg version="1.0" xmlns="http://www.w3.org/2000/svg"
 width="460.000000pt" height="460.000000pt" viewBox="0 0 460.000000 460.000000"
 preserveAspectRatio="xMidYMid meet">
<metadata>
Created by potrace 1.11, written by Peter Selinger 2001-2013
</metadata>
<g transform="translate(0.000000,460.000000) scale(0.100000,-0.100000)"
fill="#000000" stroke="none">
<path d="M1490 3951 c-128 -28 -202 -125 -214 -283 -4 -63 -11 -78 -31 -78
-20 0 -111 -63 -135 -93 -24 -30 -45 -86 -65 -176 -9 -35 -19 -69 -24 -75 -4
-6 -20 -51 -36 -101 -16 -49 -34 -99 -41 -110 -7 -11 -13 -23 -13 -28 0 -27
-16 -86 -29 -104 -9 -15 -15 -55 -17 -115 -1 -51 -5 -100 -9 -108 -3 -9 0 -35
9 -59 11 -32 12 -48 4 -63 -14 -25 -3 -184 16 -248 7 -25 16 -72 19 -105 5
-59 4 -62 -30 -100 -78 -86 -88 -111 -90 -213 -2 -89 -4 -94 -31 -115 -15 -12
-67 -56 -114 -97 -47 -41 -95 -82 -105 -90 -110 -89 -373 -334 -367 -343 14
-26 47 -57 60 -57 17 0 100 66 196 155 18 17 58 52 90 78 31 27 76 67 99 89
23 22 59 52 80 66 21 13 38 28 38 32 0 4 27 28 60 54 l59 47 21 -38 c61 -112
89 -157 115 -186 24 -27 52 -86 59 -122 1 -6 11 -24 23 -41 17 -23 19 -34 11
-42 -9 -9 -8 -12 4 -12 17 0 98 -67 98 -82 0 -4 8 -16 18 -27 59 -63 82 -90
82 -99 0 -6 9 -14 20 -17 11 -3 20 -11 20 -16 0 -5 27 -35 60 -66 33 -31 60
-62 60 -69 0 -8 7 -14 15 -14 8 0 15 -5 15 -10 0 -6 13 -18 29 -28 22 -13 27
-22 20 -32 -32 -51 -51 -317 -25 -340 24 -19 216 -50 389 -62 l167 -12 0 -26
c0 -56 31 -155 57 -182 15 -16 31 -28 37 -28 5 0 27 -12 47 -26 21 -14 47 -24
61 -22 13 2 31 -5 40 -14 22 -22 50 -13 66 20 16 35 16 47 -9 122 -31 94 -51
140 -61 140 -4 0 -8 6 -8 14 0 9 20 16 62 20 34 4 81 16 105 27 23 10 44 19
47 19 3 0 28 14 56 31 47 29 170 167 170 191 0 6 -18 39 -40 74 -22 35 -40 67
-40 71 0 5 -10 26 -21 48 -12 22 -38 72 -59 111 -34 64 -38 79 -42 170 -6 110
-30 174 -88 229 -16 16 -30 34 -30 41 0 17 -62 38 -70 23 -5 -7 -15 0 -29 18
-11 15 -25 33 -31 40 -5 6 -17 31 -27 55 -9 23 -34 72 -55 107 -37 64 -40 81
-12 81 8 0 14 5 14 10 0 6 -7 10 -15 10 -8 0 -15 -4 -15 -10 0 -19 -21 -10
-30 14 -5 13 -14 27 -19 31 -6 3 -11 11 -11 16 0 12 52 0 63 -15 5 -8 10 -7
16 2 14 22 49 -5 43 -33 -3 -19 1 -22 22 -22 14 0 26 3 26 8 0 5 9 4 20 -3 14
-9 18 -19 13 -33 -5 -17 -4 -18 10 -7 13 11 19 11 36 0 12 -7 21 -16 21 -20 0
-12 28 -9 36 3 3 6 -6 23 -20 38 -14 15 -23 31 -19 36 5 4 3 5 -3 2 -20 -11
-56 23 -50 47 5 21 2 23 -35 24 -46 2 -82 18 -73 33 3 6 -2 10 -12 9 -35 -4
-39 0 -16 16 12 8 22 19 22 23 0 13 -59 19 -64 7 -3 -6 -8 -1 -11 11 -7 22 -8
22 -34 7 -25 -15 -31 -14 -97 9 -104 38 -184 73 -179 79 3 3 23 3 45 1 36 -4
40 -2 40 18 0 21 -3 22 -59 16 -41 -5 -62 -3 -69 6 -14 19 -5 230 11 242 8 6
20 28 27 50 7 22 19 44 26 48 8 4 14 15 14 22 0 18 0 18 75 0 33 -8 79 -15
102 -15 23 0 54 -5 69 -10 69 -27 142 43 145 140 2 32 9 60 21 75 20 25 24 60
8 70 -23 14 -7 25 40 25 29 0 50 4 50 11 0 6 10 19 22 28 14 12 22 30 22 54 1
35 3 38 51 53 28 9 56 22 64 28 11 8 15 8 18 -1 5 -15 93 -18 93 -4 0 18 69
23 92 6 54 -37 106 -4 110 70 3 56 -8 49 161 100 48 15 87 30 87 34 0 4 6 8
13 9 38 3 84 15 97 26 8 7 49 22 90 35 41 12 89 28 105 36 17 7 66 22 109 34
71 20 117 36 296 105 30 11 57 24 60 27 3 4 21 10 40 14 19 4 45 13 56 21 19
11 82 36 164 64 132 45 214 78 218 88 6 20 -34 14 -121 -18 -256 -95 -460
-168 -507 -181 -25 -7 -54 -18 -65 -25 -23 -14 -267 -99 -430 -150 -60 -19
-119 -39 -130 -44 -53 -23 -184 -62 -225 -67 -40 -4 -46 -2 -55 18 -14 33 -53
41 -193 41 -67 0 -125 4 -128 9 -3 5 -41 9 -84 9 -48 0 -80 4 -82 11 -2 6 -42
15 -88 20 -47 4 -112 17 -145 28 -33 11 -90 25 -127 31 -46 8 -68 17 -68 26 0
8 -6 14 -12 14 -7 0 -38 24 -69 53 l-56 53 15 75 c8 40 20 81 28 89 21 25 54
103 54 131 0 38 -46 137 -87 187 -19 23 -51 49 -71 58 -42 17 -162 26 -212 15z
m950 -969 c0 -13 -12 -22 -22 -16 -10 6 -1 24 13 24 5 0 9 -4 9 -8z m-50 -16
c0 -9 -40 -13 -46 -5 -3 5 6 9 20 9 14 0 26 -2 26 -4z"/>
<path d="M2350 1840 c0 -5 5 -10 10 -10 6 0 10 5 10 10 0 6 -4 10 -10 10 -5 0
-10 -4 -10 -10z"/>
<path d="M2400 1760 c0 -5 5 -10 11 -10 5 0 7 5 4 10 -3 6 -8 10 -11 10 -2 0
-4 -4 -4 -10z"/>
</g>
</svg>
