<?xml version="1.0" standalone="no"?>
<!DOCTYPE svg PUBLIC "-//W3C//DTD SVG 20010904//EN"
 "http://www.w3.org/TR/2001/REC-SVG-20010904/DTD/svg10.dtd">
<svg version="1.0" xmlns="http://www.w3.org/2000/svg"
 width="460.000000pt" height="460.000000pt" viewBox="0 0 460.000000 460.000000"
 preserveAspectRatio="xMidYMid meet">
<metadata>
Created by potrace 1.11, written by Peter Selinger 2001-2013
</metadata>
<g transform="translate(0.000000,460.000000) scale(0.100000,-0.100000)"
fill="#000000" stroke="none">
<path d="M1435 3923 c-96 -51 -130 -107 -147 -239 -11 -84 -11 -85 -48 -104
-20 -10 -42 -26 -49 -34 -8 -9 -19 -16 -27 -16 -32 0 -81 -92 -114 -217 -10
-37 -35 -113 -55 -168 -20 -55 -45 -129 -55 -165 -10 -36 -24 -80 -31 -99 -7
-20 -12 -81 -12 -145 0 -287 3 -380 12 -409 6 -18 14 -67 19 -109 l8 -76 -41
-50 c-66 -80 -80 -115 -81 -211 0 -61 -5 -87 -15 -95 -79 -60 -568 -492 -587
-518 -12 -16 -11 -23 2 -43 29 -45 23 -49 272 170 351 308 365 319 383 308 38
-24 241 -375 241 -417 0 -6 11 -18 24 -26 13 -8 70 -67 126 -130 136 -152 230
-250 266 -276 l28 -21 -19 -64 c-15 -48 -20 -93 -20 -179 l0 -115 65 -16 c65
-17 200 -33 385 -47 l99 -7 14 -50 c43 -161 39 -152 96 -189 29 -18 68 -37 87
-40 19 -4 44 -12 57 -18 32 -16 55 8 54 59 -1 44 -33 140 -63 191 -12 21 -16
39 -11 44 5 5 38 15 74 23 80 16 194 67 231 103 42 40 127 148 127 162 0 6
-11 26 -24 43 -13 18 -55 95 -94 172 -67 136 -70 143 -80 246 -6 60 -17 120
-27 138 -26 51 -85 111 -134 136 -60 30 -71 43 -126 149 -25 50 -69 131 -96
181 -52 97 -57 115 -35 115 18 0 113 -51 209 -113 71 -45 99 -55 83 -28 -25
40 -259 177 -358 210 -35 12 -99 37 -142 55 -64 28 -85 43 -106 75 -26 38 -27
45 -23 133 4 69 12 106 29 144 13 28 24 55 24 60 1 5 11 22 24 37 l22 28 56
-15 c69 -18 208 -31 242 -22 13 3 34 21 45 39 25 40 54 156 54 213 0 41 0 42
41 46 57 7 94 43 102 100 6 42 8 44 53 57 25 8 73 13 105 12 35 -1 78 6 103
15 36 14 48 15 67 5 12 -7 36 -11 52 -9 26 3 30 8 39 55 6 29 15 57 20 62 13
13 148 61 170 61 9 0 32 8 53 19 20 10 55 21 76 25 21 4 48 13 60 21 12 7 102
40 201 74 175 59 429 150 685 247 207 78 232 88 221 92 -6 2 -198 -65 -428
-149 -465 -169 -1001 -349 -1041 -349 -14 0 -43 12 -63 26 -33 23 -52 27 -161
34 -294 21 -697 100 -745 147 -11 10 -43 36 -71 58 l-53 40 6 70 c4 39 13 81
20 95 73 132 77 160 30 250 -69 131 -103 150 -260 150 -63 -1 -99 -6 -120 -17z"/>
</g>
</svg>
